# xmcd
#
# Track frame offsets:
#	150
#	18732
#	38321
#	58732
#	74946
#	97783
#	115690
#	138600
#	167041
#	189689
#	208367
#	228495
#
# Disc length: 3372 seconds
# Revision: 0
# Processed by: cddbd v1.5.2PL0 Copyright (c) Steve Scherf et al.
# Submitted via: dBpowerAMP V12.0
#
DISCID=b00d2a0c
DTITLE=Hannah Aldridge - Live in Black and White
DYEAR=2019
DGENRE=Adult Contempory
TTITLE0=Howlin' Bones
TTITLE1=Lie Like You love Me
TTITLE2=Goldrush
TTITLE3=Aftermath
TTITLE4=Black and White
TTITLE5=Save Yourself
TTITLE6=Rails To Ride
TTITLE7=Lace
TTITLE8=Parchman
TTITLE9=Born To be Broken
TTITLE10=Lonesome (Encore)
TTITLE11=Burning Down Birmingham (Encore)
EXTD=
EXTT0=
EXTT1=
EXTT2=
EXTT3=
EXTT4=
EXTT5=
EXTT6=
EXTT7=
EXTT8=
EXTT9=
EXTT10=
EXTT11=
PLAYORDER=
